# xmcd
#
# Track frame offsets:
#	182
#	12357
#	25392
#	46482
#	56687
#	68915
#	76935
#	86557
#	101475
#	113827
#
# Disc length: 1681 seconds
#
# Revision: 2
# Processed by: cddbd v1.5.2PL0 Copyright (c) Steve Scherf et al.
# Submitted via: audiograbber 1.83.01
#
DISCID=7b068f0a
DTITLE=The Coasters - Just Coastin'
DYEAR=1992
DGENRE=Rock
TTITLE0=I Got To Boogie
TTITLE1=Searchin'
TTITLE2=If I Had A Hammer
TTITLE3=Charlie Brown
TTITLE4=Poison Ivy
TTITLE5=Yakety-Yak
TTITLE6=Young Blood 
TTITLE7=Benjamin and Loretta
TTITLE8=Along Came Jones
TTITLE9=The Chick Is Guilty
EXTD=
EXTT0=
EXTT1=
EXTT2=
EXTT3=
EXTT4=
EXTT5=
EXTT6=
EXTT7=
EXTT8=
EXTT9=
PLAYORDER=
